<?xml version="1.0" encoding="utf-8"?>
<!-- Generator: Adobe Illustrator 19.2.1, SVG Export Plug-In . SVG Version: 6.00 Build 0)  -->
<svg version="1.1" id="Capa_1" xmlns="http://www.w3.org/2000/svg" xmlns:xlink="http://www.w3.org/1999/xlink" x="0px" y="0px"
	 viewBox="0 0 1400 980" enable-background="new 0 0 1400 980" xml:space="preserve">
<g>
	<path fill="#151D38" d="M885.5,769.8c0-9.4,0-18.7-0.1-28.1c0-1.6,0.7-3.5-0.4-4.6c-1-1-2.9-0.3-4.4-0.3c-141.3,0-282.5,0-423.8,0
		c-4.5,0-3.9-0.7-3.9,3.9c0,8.8,0,17.6,0,26.4c0,0.9,0.1,1.7,0.1,2.6c-8.8,0-17.6,0-26.4,0c0-7.3,0.1-14.6,0.1-21.8c0-3,0-6.1,0-9.1
		c0-2,0-2-2-2c-5.1,0-10.2,0-15.4,0c-1.1,0-2.2-0.1-3.4,0c-1.2,0.1-1.7-0.4-1.7-1.6c0-7.6,0-15.2,0-22.8c0-1.2,0.4-1.8,1.7-1.7
		c0.6,0.1,1.1,0,1.7,0c17.2,0,34.4,0,51.6,0c0.6,0,1.3,0,1.9,0c0.6,0,0.9-0.3,0.4-0.9c-0.4-0.4-0.8-0.8-1.2-1.2
		c-2-2.4-3.4-5-3.7-8.2c-0.5-6.4-0.9-12.8-1.3-19.1c-0.8-12.1-1.5-24.1-2.3-36.2c-0.2-2.6-0.3-5.3-0.5-7.9c-0.1-1.7-0.1-1.7,1.7-1.7
		c0.6,0,1.3,0,1.9,0c27.7,0,55.4,0,83,0c3.1,0,3.1,0,2.5-3.1c-5-23.5-2.5-46.4,5.5-68.9c5.3-14.8,12.6-28.7,20.8-42.1
		c6.6-10.8,13.7-21.3,20.5-31.9c5.6-8.6,11-17.3,15.5-26.5c3.8-7.8,6.9-15.8,8.1-24.5c1.1-8.2,0-16-5.2-22.7c-0.8-1.1-1.7-2-3.1-2.4
		c-2.4-0.8-3.4-3.4-2.8-6.9c0.4-2.4,1.9-3.7,4.5-3.9c0.6,0,1.1,0,1.7,0c19.6,0,39.2,0,58.8,0c0.6,0,1.3,0,1.9,0
		c2.5,0.2,4,1.7,4.2,4.1c0.1,1,0.1,2.1,0,3.1c-0.2,1.7-1.1,3.1-2.8,3.6c-1.5,0.4-2.3,1.3-3.2,2.4c-4,5.2-5.7,11.2-5.6,17.7
		c0.2,6.5,1.6,12.7,3.8,18.7c3.1,8.5,7.4,16.5,12,24.3c5.5,9.2,11.4,18.1,17.3,27.1c8.6,13.2,17,26.5,24,40.7c0.2,0.4,0.4,0.7,0.6,1
		c0.1,0.1,0.3,0.2,0.4,0.2c0.1,0,0.2-0.2,0.2-0.3c0-0.7,0-1.4,0-2.2c0-40.9,0-81.8,0-122.6c0-8.6,0-17.3,0-25.9c0-8,1-15.9,3.6-23.6
		c3-8.8,8.2-16,15.6-21.7c3.3-2.5,6.8-4.7,10.5-6.7c3.2-1.7,6.3-3.4,9.5-5.2c1.7-1,3.3-2,4.8-3.1c4.9-3.5,7.3-8.3,7.2-14.3
		c-0.1-7.6,0-15.2,0-22.8c0-22.7,0-45.4,0-68.2c0-3.4-0.2-2.9,3-2.9c0.2,0,0.3,0,0.5,0c2.1,0,2.1,0,2.1-2.1c0-4.6,0.2-9.1-0.1-13.7
		c9,0,17.9,0,26.9,0c0,4.6,0,9.3,0,13.9c0,1.8,0,1.8,1.9,1.9c1.2,0.1,2.6-0.5,3.5,0.3c0.9,0.9,0.3,2.4,0.3,3.7
		c0,29.8,0.1,59.5,0,89.3c0,6.9,2.6,12,8.2,15.8c3.2,2.1,6.6,4,10,5.8c3.7,2,7.4,4.1,10.9,6.5c11.8,8,18.5,19.2,20.9,33.1
		c0.9,5.4,1.2,10.8,1.2,16.2c0,103.4,0,206.9,0,310.3c0,3.9,0,3.9,3.9,3.9c22.4,0,44.8,0,67.2,0c0.6,0,1.3,0,1.9,0
		c1.1-0.1,1.6,0.3,1.6,1.5c0,7.7,0,15.4,0,23c0,1.4-0.7,1.6-1.8,1.5c-5.8,0-11.7,0-17.5,0c-0.6,0-1.3,0-1.9,0
		c-0.9,0-1.3,0.4-1.3,1.3c0,0.6,0,1.3,0,1.9c0,9.9,0,19.8,0,29.8C902.8,769.8,894.2,769.8,885.5,769.8z"/>
	<path fill="#FFFFFF" d="M856.3,540.8c0-38.7,0-77.4,0-116.1c0-3.9,0.5-3.4-3.2-3.4c-42.6,0-85.3,0-127.9,0c-3.6,0-3.2-0.4-3.2,3.2
		c0,40.5,0,80.9-0.1,121.4c0,5,0.3,9.7,2.7,14.1c0.2,0.3,0.3,0.7,0.4,1.1c5.7,15.2,9,30.8,9,47.1c0,17.1-3.8,33.4-10.6,49.1
		c-1.2,2.8-1.4,2.6,1.7,2.6c0.1,0,0.2,0,0.2,0c42.6,0,85.3,0,127.9,0c3.5,0,3.1,0.4,3.1-3C856.3,618.2,856.3,579.5,856.3,540.8z"/>
	<path fill="#FAE0D6" d="M636.7,577.4c29,0,57.9,0,86.9,0c0.7,0,1.4,0,2.2,0c1,0,1.3-0.4,1-1.3c-0.9-3-1.7-6-2.7-8.9
		c-4.7-14-11.4-27.1-18.8-39.8c-7.1-12-14.9-23.5-22.4-35.2c-6.4-9.9-12.8-19.9-17.7-30.7c-3.9-8.6-6.8-17.4-7.3-26.9
		c-0.3-6.5,1.1-12.5,4.5-18.1c0.4-0.7,1.5-1.5,1.1-2.2c-0.5-0.8-1.8-0.4-2.7-0.4c-16.1,0-32.2,0-48.2,0c-0.6,0-1.1,0-1.7,0
		c-1.3,0.1-1.4,0.3-0.7,1.4c5.2,7.6,6.1,15.9,4.8,24.8c-1.3,8.6-4.3,16.5-8.1,24.2c-4.8,9.8-10.6,19-16.5,28.1
		c-8.3,12.7-16.8,25.3-24.4,38.5c-7.9,13.8-14.8,28.2-19,43.6c-0.9,3.4-0.9,2.9,2.2,2.9C578.4,577.5,607.6,577.4,636.7,577.4z"/>
	<path fill="#23984B" d="M789.1,418.2c10.9,0,21.8,0,32.6,0c10.6,0,21.3,0,31.9,0c3,0,2.7,0.1,2.7-2.8c0-6.7,0-13.4,0-20.2
		c0-4.6-0.3-9.3-1-13.9c-2.2-13.7-8.7-24.6-20.4-32.2c-3.1-2.1-6.4-3.9-9.7-5.7c-3.5-1.9-7-3.8-10.4-6c-6.5-4.3-9.7-10.1-9.6-18.1
		c0.2-17.5,0.1-35,0.1-52.5c0-3.3,0.5-3.2-3.3-3.2c-6.6,0-13.3,0-19.9,0c-2.3,0-4.6,0-7,0c-1.9,0-1.9,0.1-2,2c0,0.6,0,1.1,0,1.7
		c0,16.7,0,33.4,0,50.1c0,1.2,0,2.4,0,3.6c-0.1,5.3-2,9.8-5.9,13.4c-2.1,2-4.5,3.6-7,5c-2.9,1.7-5.9,3.3-8.8,4.9
		c-3.2,1.8-6.4,3.6-9.4,5.7c-7.5,5.3-13.1,12.2-16.3,20.9c-2,5.4-3.1,11.1-3.5,16.9c-0.6,9.4-0.2,18.9-0.3,28.3c0,1.9,0,1.9,2.1,2
		c0.6,0,1.3,0,1.9,0C747,418.2,768.1,418.2,789.1,418.2z"/>
	<path fill="#C27659" d="M668.8,733.9c85.9,0,171.8,0,257.7,0c0.6,0,1.1,0,1.7,0c2.9,0,2.8,0.3,2.8-2.7c0-4.6,0-9.3,0-13.9
		c0-4.1,0.4-3.5-3.6-3.5c-172.1,0-344.3,0-516.4,0c-0.5,0-1,0-1.4,0c-2.1,0-2.1,0-2.1,2.1c0,4.9,0,9.8,0,14.6c0,4-0.5,3.4,3.5,3.4
		C496.8,733.9,582.8,733.9,668.8,733.9z"/>
	<path fill="#23984B" d="M789.3,710.8c21.3,0,42.5,0,63.8,0c0.6,0,1.3,0,1.9,0c0.9,0,1.3-0.3,1.3-1.3c0-0.6,0-1.3,0-1.9
		c0-13.8,0-27.7,0-41.5c0-0.6,0-1.1,0-1.7c0.1-1.2-0.4-1.6-1.6-1.5c-0.4,0-0.8,0-1.2,0c-42.9,0-85.9,0-128.8,0c-0.6,0-1.1,0-1.7,0
		c-0.7,0-1,0.4-1.1,1c0,0.6,0,1.3,0,1.9c0,7.8,0,15.7,0,23.5c0,6.2,0,12.3,0,18.5c0,3.2-0.2,2.9,2.8,2.9c0.5,0,1,0,1.4,0
		C747.2,710.8,768.3,710.8,789.3,710.8z"/>
	<path fill="#FAE0D6" d="M669.5,638.8c-13.8,0-27.5,0-41.3,0c-4.8,0-9.6,0-14.4,0c-1.9,0-1.9,0-2,1.8c-0.5,7.3-0.9,14.7-1.4,22
		c-0.6,8.9-1.2,17.9-1.7,26.8c-0.2,3.3-0.4,6.5-0.6,9.8c-0.1,1.8,0,1.8,1.8,1.9c0.2,0,0.3,0,0.5,0c24,0,48,0,72,0
		c1.3,0,2.5-0.3,3.6-1.1c4.8-3.2,9.2-6.9,13.2-11.1c12.9-13.5,21.5-29.5,27-47.3c0.9-2.8,0.9-2.9-2.1-2.9
		C705.8,638.8,687.7,638.8,669.5,638.8z"/>
	<path fill="#EBBE62" d="M563,638.7c-14.7,0-29.4,0-44.1,0c-2.6,0-2.3,0.1-2.2,2.4c0.7,11.4,1.4,22.8,2.1,34.2
		c0.5,8,0.9,16,1.5,23.9c0.5,6.8,5.6,11.6,12.3,11.6c20.1,0,40.1,0,60.2,0c6.7,0,11.8-4.9,12.3-11.6c0.3-4.9,0.6-9.7,0.9-14.6
		c0.9-14.7,1.8-29.4,2.8-44c0.1-1.8,0.1-1.9-1.7-1.9c-0.5,0-1,0-1.4,0C591.4,638.7,577.2,638.7,563,638.7z"/>
	<path fill="#FFF3A2" d="M484.7,638.7c-8.6,0-17.3,0-25.9,0c-0.6,0-1.1,0-1.7,0c-0.9,0-1.3,0.3-1.3,1.3c0.1,1.1,0.1,2.2,0.2,3.4
		c0.4,6.1,0.8,12.3,1.2,18.4c0.8,12.4,1.7,24.7,2.3,37.1c0.3,6.5,5.7,12.1,12.9,12c15.9-0.2,31.8-0.1,47.7-0.1c0.4,0,0.8,0,1.2,0
		c0.4,0,0.9,0.2,1.1-0.3c0.2-0.5-0.3-0.7-0.5-0.9c-2.8-2.7-4.4-6.1-4.6-10c-1-15.9-2-31.8-3-47.6c-0.2-3.8-0.5-7.7-0.8-11.5
		c-0.1-1.8-0.1-1.8-2-1.8c-0.5,0-1,0-1.4,0C501.7,638.7,493.2,638.7,484.7,638.7z"/>
	<path fill="#ACDCF6" d="M636.6,615.4c-30.2,0-60.5,0-90.7,0c-0.7,0-1.4,0-2.2,0c-1,0-1.5,0.4-1.3,1.5c0.2,1.3,0.2,2.7,0.4,4.1
		c0.6,3.9,0.1,3.3,3.7,3.3c60.1,0,120.1,0,180.2,0c0.6,0,1.1,0,1.7,0c1.1,0.1,1.6-0.3,1.7-1.4c0.1-1.4,0.3-2.9,0.5-4.3
		c0.3-3,1-3.1-2.8-3.1C697.4,615.5,667,615.4,636.6,615.4z"/>
	<path fill="#ACDCF6" d="M636.6,589.2c29.7,0,59.4,0,89,0c0.6,0,1.3,0,1.9,0c1.9-0.1,1.9-0.1,1.6-1.9c-0.2-1.3-0.4-2.7-0.7-4
		c-0.8-3.1,0.1-3-3.7-3c-58.8,0-117.6,0-176.4,0c-0.6,0-1.1,0-1.7,0c-1,0-1.4,0.4-1.6,1.4c-0.3,1.5-0.6,3-0.9,4.5
		c-0.5,3-0.5,3,2.7,3C576.8,589.2,606.7,589.2,636.6,589.2z"/>
	<path fill="#ACDCF6" d="M636.5,612.5c29.8,0,59.5,0,89.3,0c1.7,0,3.8,0.7,4.9-0.3c1.2-1.1,0.5-3.3,0.5-5.1
		c-0.1-3.6,0.5-3.4-3.3-3.4c-60.7,0-121.4,0-182.1,0c-0.6,0-1.1,0-1.7,0c-1.2-0.1-1.8,0.3-1.7,1.6c0.1,1.4,0,2.7,0,4.1
		c0,3.6-0.2,3.1,3.1,3.1C575.7,612.5,606.1,612.5,636.5,612.5z"/>
	<path fill="#ACDCF6" d="M636.7,600.9c30.2,0,60.5,0,90.7,0c0.6,0,1.3,0,1.9,0c1.1,0.1,1.6-0.3,1.5-1.5c-0.2-1.4-0.2-2.9-0.4-4.3
		c-0.6-3.3,0.2-2.9-3.2-2.9c-60.3,0-120.6,0-180.9,0c-0.6,0-1.1,0-1.7,0c-0.9,0-1.3,0.3-1.4,1.2c-0.1,1.6-0.3,3.2-0.5,4.8
		c-0.4,3-0.3,2.8,2.4,2.8c0.6,0,1.1,0,1.7,0C576.7,600.9,606.7,600.9,636.7,600.9z"/>
	<path fill="#ACDCF6" d="M636.7,627.2c-29.8,0-59.6,0-89.5,0c-0.6,0-1.3,0-1.9,0c-1.1-0.1-1.7,0.2-1.3,1.5c0.4,1.6,0.7,3.3,1,4.9
		c0.4,2,0.5,2,2.5,2c22.5,0.2,45.1,0,67.6,0.3c36.5,0.4,72.9,0.1,109.4,0.1c0.6,0,1.1-0.1,1.7,0c1.1,0.1,1.6-0.5,1.8-1.5
		c0.3-1.4,0.7-2.8,0.9-4.2c0.5-3.4,1.2-3.1-2.5-3.1C696.5,627.2,666.6,627.2,636.7,627.2z"/>
	<path fill="#FFFFFF" d="M719,689.1c0-5.1,0-10.2,0-15.4c0-1.8,0-3.7,0-5.5c0-0.2-0.1-0.5-0.2-0.6c-0.3-0.2-0.4,0.1-0.5,0.3
		c-0.4,0.6-0.7,1.2-1.1,1.9c-7.1,12.1-15.8,22.9-27.3,31.2c-0.2,0.1-0.4,0.3-0.6,0.4c-0.6,0.4-0.6,0.9-0.1,1.4
		c1.8,1.8,1.8,4,1.6,6.3c-0.1,1.8-0.2,1.8,1.6,1.8c8.2,0,16.3,0,24.5,0c2.1,0,2.2,0,2.2-2.3C719,702,719,695.5,719,689.1z"/>
	<path fill="#C27659" d="M908.5,751.9c0-4.5,0-8.9,0-13.4c0-1.2-0.4-1.7-1.7-1.7c-5.6,0-11.2,0-16.8,0c-1.2,0-1.7,0.3-1.7,1.6
		c0,8.9,0,17.9,0,26.8c0,1.2,0.4,1.7,1.7,1.7c5.6,0,11.2,0,16.8,0c1.7,0,1.7-0.1,1.7-1.8C908.5,760.7,908.5,756.3,908.5,751.9z"/>
	<path fill="#C27659" d="M449.8,751.9c0-4.4,0-8.8,0-13.2c0-1.8-0.1-1.9-1.9-1.9c-5.4,0-10.9,0-16.3,0c-1.8,0-1.8,0.1-1.8,1.9
		c0,3.4,0,6.9,0,10.3c0,5.3,0,10.6,0,15.8c0,1.9,0,2,1.8,2c5.5,0,11,0,16.5,0c1.7,0,1.7-0.1,1.7-1.8
		C449.8,760.7,449.8,756.3,449.8,751.9z"/>
	<path fill="#ACDCF6" d="M644.6,710.8c12.9,0,25.9,0,38.8,0c0.7,0,1.4,0,2.2,0c1.1-0.1,2-0.8,2.2-1.9c0.4-2.6,0.2-5.1-3.6-4.9
		c-0.3,0-0.6,0-1,0c-24.4,0-48.9,0-73.3,0c-0.5,0-1,0-1.4,0c-0.8-0.1-1.3,0.3-1.7,1c-0.8,1.9-2,3.4-3.5,4.8
		c-0.2,0.2-0.5,0.5-0.3,0.8c0.1,0.1,0.4,0.2,0.7,0.2c0.6,0,1.3,0,1.9,0C618.5,710.8,631.6,710.8,644.6,710.8z"/>
	<path fill="#ACDCF6" d="M636.7,410.9c9.9,0,19.8,0,29.7,0c2.7,0,2.9-0.3,2.9-2.8c0-2-0.4-2.4-2.3-2.5c-0.4,0-0.8,0-1.2,0
		c-19.4,0-38.8,0-58.3,0c-0.6,0-1.3,0-1.9,0.1c-0.9,0.1-1.5,0.6-1.5,1.6c-0.1,0.8,0,1.6,0,2.4c0.1,0.8,0.6,1.3,1.5,1.3
		c0.6,0,1.3,0,1.9,0C617.2,410.9,626.9,410.9,636.7,410.9z"/>
	<path fill="#CCD6DA" d="M789.3,228.9c-4.7,0-9.4,0-14.1,0c-1.9,0-1.9,0-2,2c0,1.8,0,3.5,0,5.3c0,0.9,0.3,1.4,1.3,1.3
		c0.4,0,0.8,0,1.2,0c9.1,0,18.2,0,27.3,0c0.4,0,0.8,0,1.2,0c0.8,0,1.1-0.4,1.1-1.2c0-1.8,0-3.7,0-5.5c0-1.9,0-1.9-1.9-1.9
		C798.7,228.9,794,228.9,789.3,228.9z"/>
	<path fill="#151D38" d="M789.3,240.5c-4.6,0-9.3,0-13.9,0c-2.2,0-2.2,0-2.2,2.3c0,1.7,0,3.4,0,5c0,0.9,0.3,1.3,1.3,1.3
		c0.4,0,0.8,0,1.2,0c9,0,18.1,0,27.1,0c0.5,0,1,0,1.4,0c0.8,0,1.1-0.4,1.1-1.2c0-1.8,0-3.7,0-5.5c0-1.8,0-1.9-1.9-1.9
		C798.7,240.5,794,240.5,789.3,240.5z"/>
	<path fill="#CCD6DA" d="M789.1,260.6c4.6,0,9.3,0,13.9,0c2.3,0,2.3,0,2.3-2.4c0-1.4,0-2.9,0-4.3c0-1.8-0.1-1.8-1.9-1.9
		c-5,0-9.9,0-14.9,0c-4.5,0-8.9,0-13.4,0c-1.9,0-1.9,0-1.9,1.8c0,1.7,0,3.4,0,5c0,1.7,0.1,1.7,1.8,1.7
		C779.7,260.7,784.4,260.6,789.1,260.6z"/>
	<path fill="#C27659" d="M789.3,226c3,0,5.9,0,8.9,0c1,0,1.4-0.4,1.4-1.4c0-3.3,0-6.5,0-9.8c0-1.2-0.6-1.5-1.6-1.5
		c-5.8,0-11.7,0-17.5,0c-1.2,0-1.7,0.4-1.7,1.7c0.1,3.1,0,6.2,0,9.3c0,1.6,0.1,1.7,1.8,1.7C783.5,226,786.4,226,789.3,226z"/>
	<path fill="#151D38" d="M403.6,479.4c0.7-0.4,0.8-1.1,1.1-1.8c2.1-5.2,7.2-7.8,12.7-6.3c1.8,0.5,1.8,0.5,2.6-1.3
		c1.9-4.4,6.1-6.8,10.8-6.3c4.6,0.5,8.1,4,9,8.7c0.2,0.8-0.2,2,0.5,2.5c0.6,0.4,1.5,0,2.3,0c5,0.3,9,3.9,9.8,8.7
		c0.8,4.7-1.8,9.3-6.3,11.2c-1.8,0.8-1.8,0.8-1.3,2.5c1.3,5.1-0.8,9.9-5.2,12.2c-4.4,2.3-9.6,1.1-12.9-2.9c-1.1-1.3-1.1-1.3-2.5-0.3
		c-4.2,2.8-9.4,2.5-13-0.8c-3.6-3.3-4.4-8.6-1.9-12.9c0.9-1.6,0.9-1.6-0.6-2.7c-1.7-1.2-3-2.8-3.8-4.8c-0.3-0.6-0.3-1.5-1.1-1.7
		C403.6,482,403.6,480.7,403.6,479.4z"/>
	<path fill="#E86AA0" d="M410.6,497.6c0,3.4,2,6.2,4.9,7.2c3.1,1.1,6.3,0.1,8.4-2.5c2.2-2.8,2.6-2.8,4,0.6c1.7,4.2,6.4,5.9,10.3,3.9
		c3.8-2,5.2-6.7,3-10.5c-1.9-3.2-1.9-3.3,1.8-3.7c4.8-0.6,7.8-5.1,6.4-9.6c-1.4-4.3-5.7-6.3-10.2-4.5c-0.8,0.3-1.5,0.7-2.2,0
		c-0.7-0.7-0.5-1.4-0.2-2.2c0.5-1.7,0.5-3.5-0.2-5.2c-1.3-3.1-4.7-5.1-7.9-4.6c-3.5,0.6-6.1,3.3-6.4,6.8c-0.3,3.5-0.7,3.7-3.5,1.8
		c-2.6-1.8-5.4-1.9-8.1-0.2c-2.7,1.7-3.9,4.2-3.5,7.3c0.4,3.1,2.3,5.2,5.3,6.2c0.5,0.2,1.1,0.2,1.6,0.4c1.1,0.4,1.3,1.5,0.5,2.3
		c-0.4,0.4-0.9,0.7-1.3,1.1C411.5,493.7,410.6,495.6,410.6,497.6z"/>
	<path fill="#151D38" d="M996.4,618.6c-0.8,0.6-0.5,1.6-0.9,2.4c-1.3,2.5-3.1,4.2-5.7,5.2c-1.6,0.6-1.6,0.7-1.1,2.3
		c1.7,6.6-2.4,12.7-9.1,13.3c-3.7,0.3-6.7-1.1-9.1-3.9c-1.1-1.3-1.1-1.3-2.5-0.4c-4.3,2.9-9.6,2.6-13.2-0.9c-3.5-3.4-4.2-8.6-1.7-13
		c0.9-1.5,0.9-1.5-0.7-2.6c-3.4-2.5-4.9-5.9-4.3-10c0.6-4.2,3.1-7.1,7.2-8.4c1.9-0.6,3.9-0.6,5.9-0.1c1.9,0.5,1.9,0.5,2.7-1.2
		c1.8-4.2,5.6-6.6,10-6.4c5.1,0.2,9.2,3.9,9.9,9.1c0.3,2.1,0.3,2.1,2.3,2.2c5.1,0.1,8.6,3,10,8c0.1,0.2,0.2,0.4,0.4,0.6
		C996.4,616.1,996.4,617.4,996.4,618.6z"/>
	<path fill="#E86AA0" d="M978.2,639c3.9,0,6.8-2.2,7.7-5.5c0.7-2.5,0-4.7-1.5-6.8c-1.1-1.5-0.6-2.5,1.3-2.7c0.3,0,0.6,0,1,0
		c3.1-0.3,5.3-1.9,6.4-4.7c1.1-2.9,0.6-5.6-1.5-7.8c-2.2-2.3-4.9-2.9-7.9-1.9c-0.9,0.3-1.8,1.2-2.9,0.3c-1-0.9-0.2-2,0-2.9
		c0.9-4-1.7-8.1-5.7-8.9c-4.1-0.8-8.1,1.8-8.9,5.8c-0.1,0.7-0.1,1.4-0.1,2.2c-0.2,1.7-1.2,2.2-2.6,1.2c-0.3-0.2-0.6-0.5-1-0.7
		c-2.7-1.7-5.4-1.8-8.1-0.1c-2.5,1.6-3.8,4-3.4,6.9c0.3,3.2,2.1,5.5,5.3,6.5c3.4,1.1,3.5,1.4,0.8,3.9c-2.4,2.2-3.2,5.6-1.8,8.5
		c1.3,2.9,4.3,4.7,7.6,4.4c2.6-0.2,4.4-1.6,5.8-3.8c0.4-0.7,0.9-1.2,1.7-1c0.7,0.1,1,0.7,1.2,1.4c0.1,0.5,0.3,1.1,0.6,1.6
		C973.4,637.4,975.6,638.9,978.2,639z"/>
	<path fill="#151D38" d="M649.2,307.6c-3,0-5.3-0.9-7.2-2.7c-1.4-1.2-1.4-1.2-2.7,0c-5.6,5-14.2,3.1-16.8-3.8
		c-1.2-3.1-0.9-6.1,0.8-9c0.7-1.1,0.6-1.6-0.6-2.4c-4.3-2.8-5.9-7.7-4.2-12.4c1.7-4.6,6.2-7.2,11.3-6.7c1.6,0.2,1.6,0.2,1.9-1.4
		c1-5.1,5-8.6,10-8.7c5-0.1,9.2,3.3,10.3,8.3c0.1,0.5,0.2,0.9,0.3,1.4c0.1,0.6,0.4,0.8,1,0.8c0.6,0,1.1-0.1,1.7-0.1
		c4.9,0,9,3.2,10.2,7.9c1.1,4.5-1,9.3-5.2,11.6c-0.1,0-0.1,0.1-0.2,0.1c-1.7,0.9-1.7,0.9-1,2.5c0.9,2.1,1.1,4.3,0.5,6.6
		C657.8,304.6,653.9,307.7,649.2,307.6z"/>
	<path fill="#ACDCF6" d="M649.1,304.8c3.1-0.1,5.4-1.6,6.7-4.5c1.3-2.9,0.7-5.6-1.3-8c-0.6-0.7-1.6-1.2-1.2-2.4
		c0.4-1.2,1.5-0.9,2.4-1.1c0.3,0,0.6-0.1,0.9-0.2c4.3-1.1,6.7-5.4,5.3-9.5c-1.4-4.2-5.7-6.2-9.8-4.7c-0.4,0.2-0.9,0.4-1.3,0.6
		c-1.1,0.3-1.9-0.2-1.9-1.4c0-0.5,0.1-0.9,0.2-1.4c0.5-3.1-0.6-5.5-3.1-7.3c-2.4-1.7-5.1-1.9-7.7-0.5c-2.7,1.4-4.1,3.8-3.9,6.9
		c0,0.6,0.2,1.3,0.2,1.9c0.1,1.7-0.8,2.3-2.4,1.6c-0.2-0.1-0.4-0.2-0.6-0.4c-2.8-1.5-5.6-1.2-8.1,0.7c-2.2,1.7-3.3,4.1-2.8,7
		c0.6,3.2,2.5,5.2,5.7,6.1c0.4,0.1,0.8,0.1,1.2,0.3c1.1,0.4,1.3,1.4,0.6,2.3c-0.4,0.5-1,0.8-1.4,1.3c-2.2,2.2-2.8,5.4-1.6,8.2
		c1.2,2.8,4,4.6,7,4.5c3.2-0.1,5.4-1.7,6.7-4.6c0.3-0.8,0.7-1.5,1.7-1.5c0.8,0,1.2,0.7,1.5,1.4c0.2,0.4,0.3,0.7,0.5,1.1
		C644.1,303.5,646.2,304.7,649.1,304.8z"/>
	<path fill="#151D38" d="M520.2,450.7c-0.3-1,0.8-2.4,0.1-3.2c-0.6-0.7-2.1-0.7-3.1-1.1c-3.9-1.6-6.4-5.4-6.3-9.6
		c0-4.3,2.7-8.1,6.7-9.6c0.4-0.1,0.8-0.3,1.1-0.4c1.9-0.5,1.9-0.5,1.7-2.3c-0.4-3.1,0.3-5.9,2.3-8.3c4.6-5.4,13-4.8,16.8,1.3
		c0.2,0.3,0.4,0.5,0.5,0.8c0.4,1,0.9,1.1,1.8,0.6c2.1-1.1,4.3-1.5,6.7-1c7.8,1.6,11,10.8,5.9,16.9c-0.4,0.4-0.8,0.8-1.2,1.2
		c-0.5,0.4-0.4,0.8,0,1.2c0.3,0.3,0.6,0.6,0.8,0.8c3.3,3.7,3.6,8.9,0.9,12.9c-2.7,4-7.7,5.5-12.3,3.8c-0.2-0.1-0.5-0.1-0.7-0.3
		c-1.2-0.8-1.6-0.2-2.1,0.8c-2.5,4.9-7.5,7.1-12.4,5.6C523.1,459.4,520.2,455.6,520.2,450.7z"/>
	<path fill="#7DA4EC" d="M522,429.5c-4.2-0.3-7.7,2.5-8.1,6.5c-0.4,4.1,2.2,7.6,6.2,8.3c0.9,0.2,1.7,0.1,2.6-0.1
		c0.8-0.2,1.4-0.1,1.9,0.7c0.4,0.7,0.2,1.2-0.2,1.8c-0.7,1.1-1.2,2.2-1.3,3.6c-0.3,4,2.5,7.6,6.5,8.1c4.1,0.5,7.8-2.4,8.4-6.8
		c0.1-0.8-0.1-1.8,0.9-2.2c1-0.4,1.6,0.4,2.2,1c0.1,0.1,0.2,0.2,0.4,0.3c3.4,2.9,8.4,2.4,11-1.2c2.6-3.6,1.5-8.5-2.4-10.8
		c-3.1-1.8-3.1-2.2,0-4c2.7-1.6,4.1-4,3.8-7.2c-0.3-3-1.9-5.1-4.7-6.2c-3.1-1.2-5.8-0.5-8.1,1.8c-1.6,1.5-2.6,1.2-3-1
		c-0.1-0.4-0.1-0.8-0.2-1.2c-1-3.3-3.9-5.5-7.4-5.4c-3.3,0.1-6,2.3-7,5.6c-0.6,2.2-0.1,4.1,1,5.9c0.4,0.6,0.8,1.2,0.4,2
		c-0.5,0.9-1.3,0.7-2.1,0.6C522.4,429.5,522.2,429.5,522,429.5z"/>
	<path fill="#151D38" d="M489.5,329.6c0.4,0,0.9,0.1,1.4,0.1c0.7,0.1,1-0.1,1.1-0.9c0.1-0.6,0.2-1.3,0.4-1.9
		c1.4-4.7,5.6-7.7,10.5-7.4c4.8,0.2,8.8,3.8,9.6,8.5c0.3,1.9,0.3,1.9,2.3,1.9c5.1-0.2,9.4,2.9,10.6,7.6c1.3,4.9-0.9,9.6-5.5,12.1
		c-1.5,0.8-1.5,0.8-0.9,2.4c1.9,4.7,0.5,9.8-3.5,12.6c-4.1,2.9-9.3,2.5-13.2-1c-1.3-1.1-1.3-1.1-2.6,0.1c-4,3.6-9.5,3.9-13.6,0.7
		c-3.9-3.1-5.1-8.6-2.7-13.2c0.9-1.6,0.8-1.6-0.8-2.8c-3.6-2.6-5-6.2-4.2-10.5c0.7-4,3.3-6.6,7.1-7.9
		C486.9,329.6,488.2,329.7,489.5,329.6z"/>
	<path fill="#E5384A" d="M522.8,340.2c-0.1-5.1-5.1-8.6-9.9-6.9c-3.4,1.2-3.5,1.1-3.2-2.6c0.2-3.1-1-5.5-3.6-7.1
		c-2.7-1.7-5.5-1.5-8.1,0.3c-2.5,1.8-3.5,4.3-3.1,7.3c0.1,0.4,0.2,0.8,0.2,1.2c0.1,1.3-0.8,1.9-2,1.5c-0.6-0.2-1.1-0.6-1.7-0.8
		c-3.8-1.6-8.2,0.3-9.7,4.1c-1.5,3.8,0.3,8.2,4.2,9.7c0.5,0.2,1.1,0.3,1.6,0.5c1.8,0.5,2.1,1.6,0.7,2.9c-0.2,0.2-0.5,0.4-0.7,0.6
		c-2.3,2.2-3,4.9-2,7.9c1.1,3,3.3,4.7,6.4,5c3.2,0.2,5.5-1.2,7.1-3.9c0.5-0.8,0.5-2.2,1.9-2.2c1.4,0,1.4,1.3,1.9,2.2
		c1.7,2.9,5,4.5,8.1,3.7c5.7-1.4,7.7-7.9,3.9-12.3c-0.6-0.7-1.7-1.2-1.3-2.4c0.4-1.3,1.7-0.9,2.6-1.1c0.3-0.1,0.6-0.1,0.9-0.2
		C520.6,346.6,522.9,343.7,522.8,340.2z"/>
	<path fill="#151D38" d="M908.5,507.3c-0.1-0.8,0.6-2,0-2.8c-0.5-0.8-1.8-0.5-2.7-0.8c-4.3-1.5-7-5.4-6.9-10.1
		c0.1-4.5,3-8.3,7.3-9.6c0.5-0.1,0.9-0.2,1.4-0.3c0.7-0.1,0.9-0.5,0.7-1.2c-0.5-1.7-0.5-3.5-0.1-5.2c1.1-4.1,3.8-6.9,8-7.7
		c4.3-0.8,7.9,0.6,10.5,4.1c0.2,0.3,0.5,0.7,0.6,1c0.4,1.2,1,1.2,2.2,0.7c4.9-2.3,10-1,13.1,3c3,4,2.7,9.5-1,13.4
		c-0.9,0.9-0.9,1.3,0,2.2c4,4,4.3,9.7,1,13.9c-2.8,3.6-7.6,4.8-12.1,3.1c-1.6-0.6-1.6-0.6-2.4,0.9c-2.3,4.7-7,6.9-12,5.8
		C911.7,516.6,908.4,512.4,908.5,507.3z"/>
	<path fill="#E5384A" d="M934.4,508.8c3.5,0,6.4-2.1,7.3-5.3c0.9-3.3-0.4-6.7-3.4-8.5c-0.5-0.3-1.2-0.5-1.7-0.8
		c-1-0.7-1.1-1.8-0.1-2.5c0.5-0.4,1.2-0.5,1.7-0.9c3.7-2.4,4.6-7.2,2-10.7c-2.6-3.5-7.5-4.1-10.8-1.3c-2.8,2.4-3,2.3-4-1.2
		c-0.9-3-2.8-4.8-5.8-5.4c-3-0.6-5.6,0.5-7.3,3c-1.8,2.5-1.9,5.2-0.5,7.9c0.4,0.9,1.5,1.6,0.7,2.8c-0.8,1.1-1.9,0.5-2.9,0.4
		c-4.2-0.3-7.8,3-7.9,7.3c-0.1,4.3,3.3,7.7,7.5,7.6c0.6,0,1.3-0.2,1.9-0.2c1.5,0,2,0.8,1.5,2.2c-0.1,0.4-0.4,0.7-0.6,1.1
		c-1.4,2.9-1.1,5.6,0.9,8.1c1.8,2.3,5,3.3,7.8,2.4c3-1,4.8-3.1,5.4-6.2c0.1-0.5,0-1.1,0.1-1.7c0.2-1.1,1.2-1.6,2.2-1
		c0.5,0.3,0.8,0.7,1.3,1.1C931.2,508.2,932.8,508.9,934.4,508.8z"/>
	<path fill="#151D38" d="M792.2,577.7c6.2,0,12.5,0,18.7,0c0.9,0,1.8-0.1,1.7,1.3c0,1.4-0.1,1.7-1.6,1.7c-3.8,0-7.7,0-11.5,0
		c-0.6,0-1.1,0-1.7,0c-0.9-0.1-1.3,0.3-1.3,1.2c0,2.4,0,4.8,0,7.2c0,0.8,0.3,1.2,1.1,1.2c0.5,0,1,0,1.4,0c2.9,0,5.8,0,8.6,0
		c2,0,2,0,2,2c0,0.5,0,1,0,1.4c0,10.9,0,21.7,0,32.6c0,0.6,0,1.1,0,1.7c0,0.8,0.2,1.7-1.1,1.7c-1,0-2,0.2-1.9-1.4
		c0.1-0.9-0.4-1.1-1.2-1.1c-0.4,0-0.8,0-1.2,0c-8.2,0-16.5,0-24.7,0c-1.2,0-2.6-0.4-2.6,1.8c0,1-1.1,0.6-1.7,0.7
		c-0.6,0.1-1.1-0.2-1.1-0.9c0-0.5,0-1,0-1.4c0-11.5,0-23,0-34.5c0-0.3,0-0.6,0-1c-0.1-1.1,0.3-1.6,1.5-1.6c2,0.1,4,0,6,0
		c1.2,0,1.8-0.3,1.7-1.6c-0.1-2.2-0.1-4.3,0-6.5c0-1.3-0.6-1.6-1.7-1.6c-2.7,0.1-5.4,0-8.2,0c-1.7,0-2-0.3-1.8-1.9
		c0.1-0.7,0.3-1,1-1c0.6,0,1.1,0,1.7,0C780.3,577.7,786.2,577.7,792.2,577.7z M792,612.7c4.3,0,8.6,0,13,0c1.1,0,1.8-0.1,1.8-1.5
		c-0.1-5.5,0-11,0-16.6c0-1.2-0.6-1.5-1.6-1.5c-2.3,0-4.6,0-7,0c-1.7,0-1.7,0.1-1.7,1.8c0,2.3,0,4.6,0,7c0.1,4.3-0.6,3.6,3.6,3.7
		c2,0,2,0,2.4-2c0.2-0.9,0.4-1.5,1.6-1.2c1.5,0.3,1.6,0.4,1.4,1.8c-0.2,1-0.4,2-0.5,3.1c-0.1,1.1-0.7,1.3-1.6,1.3
		c-2.8,0-5.6-0.1-8.4,0c-1.3,0-1.6-0.6-1.6-1.8c0-3.5,0-7,0-10.6c0-3.6,0.4-3.1-3.2-3.1c-1.1,0-2.4-0.4-3.3,0.2
		c-1,0.8-0.4,2.3-0.4,3.4c-0.2,4.6-2,8.5-5.1,11.8c-0.6,0.7-1.1,1-2,0.2c-1.1-1.1-1.2-1.2,0-2.5c2.4-2.7,4-5.8,4-9.5
		c0-4.5,0.4-3.6-3.7-3.7c-0.2,0-0.5,0-0.7,0c-1.8,0.1-1.8,0.1-1.8,1.9c0,5.2,0,10.4,0,15.6c0,1.9,0,1.9,2.1,2
		C783.5,612.8,787.8,612.7,792,612.7z M792,615.7c-4.4,0-8.8,0-13.2,0c-1.1,0-1.7,0.2-1.6,1.5c0.1,1.8,0,3.7,0,5.5
		c0,1,0.4,1.5,1.4,1.5c0.6,0,1.1,0,1.7,0c7.7,0,15.5,0,23.2,0c0.4,0,0.8,0,1.2,0c2-0.1,2-0.1,2.1-2c0-1.5,0-3,0-4.6
		c0-1.9,0-1.9-1.8-1.9C800.6,615.7,796.3,615.7,792,615.7z M793.4,585.7c0-1.5,0-2.7,0-3.9c0-0.8-0.3-1.2-1.1-1.2c-1.5,0-3,0-4.5,0
		c-0.9,0-1.3,0.4-1.3,1.3c0,2.1,0,4.1,0,6.2c0,2.1,0,2.1,2.1,2.1c1.5,0,3.4,0.6,4.4-0.3C794.2,588.9,793.2,587,793.4,585.7z"/>
	<path fill="#151D38" d="M771.3,473.8c0-7.6,0-15.2,0-22.8c0-0.6,0-1.1,0-1.7c0-0.8,0.3-1.2,1.1-1.2c0.5,0,1,0,1.4,0
		c11.5,0,23,0,34.6,0c0.4,0,0.8,0,1.2,0c1-0.1,1.5,0.3,1.4,1.4c0,0.5,0,1,0,1.4c0,15.4,0,30.7,0,46.1c0,0.4,0,0.8,0,1.2
		c-0.1,1.5-0.4,1.8-1.9,1.7c-0.8-0.1-1.1-0.4-1.1-1.2c0-0.3,0-0.6,0-1c0-2.5,0.2-2.5-2.5-2.5c-9.6,0-19.2,0-28.8,0
		c-2.7,0-2.6,0-2.5,2.5c0,0.3,0,0.6,0,1c0.1,1.1-0.6,1.3-1.5,1.3c-0.9,0-1.5-0.2-1.5-1.3c0-4.3,0-8.6,0-13
		C771.3,481.6,771.3,477.7,771.3,473.8z M791.3,451.1c-5.1,0-10.2,0-15.3,0c-1.2,0-1.7,0.4-1.7,1.7c0,5.2,0.1,10.4,0,15.6
		c0,1.3,0.5,1.6,1.7,1.6c10.2,0,20.3,0,30.5,0c1.2,0,1.7-0.4,1.7-1.7c-0.1-5.1,0-10.2,0-15.3c0-1.8-0.1-1.8-1.9-1.8
		C801.2,451.1,796.3,451.1,791.3,451.1z M791.2,473c-5,0-10.1,0-15.1,0c-1.7,0-1.8,0.1-1.8,1.8c0,5.2,0,10.4,0,15.6
		c0,1.7,0.1,1.7,1.8,1.7c10.1,0,20.1,0,30.2,0c1.7,0,1.8-0.1,1.8-2c0-5,0-10.1,0-15.1c0-2,0-2-2-2C801.1,472.9,796.1,473,791.2,473z
		"/>
	<path fill="#151D38" d="M777.5,522.4c3.4,0,6.7,0,10.1,0c1.2,0,1.8-0.4,2.1-1.7c0.7-3,0.6-6,0.6-9.1c0-1.1,0.4-1.5,1.6-1.5
		c1.2,0,1.5,0.5,1.5,1.6c0,2.9-0.2,5.8,0.5,8.6c0.5,2,0.5,2.1,2.5,2.1c6.6,0,13.3,0,19.9,0c0.8,0,1.8-0.3,2,1.1
		c0.1,1.5-0.2,1.9-1.8,1.9c-6.1,0-12.2,0-18.2,0c-2.8,0-2.8,0-1.5,2.5c2.9,5.7,7,10.5,11.6,14.9c3.3,3.1,6.7,5.9,10.4,8.5
		c1.4,1,1.4,1.1,0.6,2.4c-0.6,0.9-1.1,0.9-1.9,0.3c-4.2-2.9-8.1-6-11.7-9.5c-4.4-4.3-8.3-8.9-11.2-14.3c-0.1-0.1-0.1-0.3-0.2-0.4
		c-0.1-0.2-0.2-0.5-0.5-0.4c-0.3,0.1-0.3,0.3-0.3,0.6c0,1.5,0,3,0,4.6c0,4.6,0,9.1,0,13.7c0,1.7,0.1,1.7,1.8,1.7c2.5,0,5,0,7.4,0
		c1,0,1.7,0.1,1.7,1.4c0,1.1-0.3,1.6-1.5,1.6c-2.2-0.1-4.5,0-6.7,0c-2.9,0-2.6-0.3-2.7,2.8c0,2.4,0,4.8,0,7.2c0,1.5-0.2,1.7-1.6,1.7
		c-1,0-1.4-0.4-1.4-1.4c0-2.3,0-4.6,0-7c0-0.6,0-1.3,0-1.9c0-1-0.4-1.4-1.4-1.4c-2.6,0-5.3,0-7.9,0c-1.1,0-1.6-0.3-1.6-1.5
		c0-1.2,0.4-1.5,1.6-1.5c2.6,0.1,5.1,0,7.7,0c1.2,0,1.7-0.4,1.7-1.6c0-6,0-12,0-18c0-0.3,0.1-0.7-0.2-0.9c-0.5-0.2-0.6,0.4-0.8,0.7
		c-5.5,9.9-13.6,17.2-22.7,23.7c-1.4,1-1.4,1.1-2.5-0.6c-0.6-0.9-0.2-1.3,0.5-1.7c3.1-2.1,5.9-4.3,8.7-6.8c5.2-4.7,9.9-9.8,13.3-16
		c2.2-4.1,1.5-3.3-1.8-3.3c-5.8,0-11.7,0-17.5,0c-1.7,0-1.7-0.1-1.8-1.5c-0.1-1.1,0.4-1.6,1.5-1.5
		C770.4,522.4,773.9,522.4,777.5,522.4C777.5,522.4,777.5,522.4,777.5,522.4z"/>
	<path fill="#E5384A" d="M843.3,637.7c0,5.2-4.3,9.4-9.5,9.3c-5.1-0.1-9.2-4.2-9.3-9.4c0-5.2,4.2-9.4,9.4-9.4
		C839.3,628.2,843.4,632.4,843.3,637.7z M840.4,637.6c0-3.5-3-6.4-6.4-6.4c-3.4,0-6.4,3-6.4,6.4c0,3.4,3,6.4,6.4,6.4
		C837.4,644,840.4,641,840.4,637.6z"/>
	<path fill="#151D38" d="M770.2,609.9c-0.1,0.3-0.3,0.7-0.4,1.1c-2.5,5.7-5.5,11.2-8.6,16.6c-0.5,0.8-0.9,1.2-1.8,0.6
		c-0.7-0.5-1.6-0.7-0.9-2c3.2-5.4,6.2-11,8.7-16.8c0.3-0.7,0.6-1,1.5-0.7C769.6,609,770.2,609.4,770.2,609.9z"/>
	<path fill="#151D38" d="M756.3,592.9c0-1.5,0.2-1.7,1.6-1.5c4.3,0.5,7.8,2.5,10.4,6.1c0.4,0.6,0.9,1.1,0,1.8
		c-1.2,0.8-1.7,1-2.4,0.1c-2.1-2.9-4.8-4.6-8.4-5C756.3,594.3,756.3,594.2,756.3,592.9z"/>
	<path fill="#151D38" d="M758.6,576.2c0-1.5,0.3-1.7,1.7-1.6c4.3,0.5,7.8,2.6,10.3,6.1c0.4,0.6,1,1.2,0,1.7
		c-0.8,0.4-1.5,1.5-2.4,0.1c-2-2.9-4.8-4.6-8.3-5C758.9,577.6,758.5,577.1,758.6,576.2z"/>
	<path fill="#151D38" d="M427.9,494.9c-4.3,0-7.8-3.4-7.9-7.6c-0.1-4.4,3.4-8,7.8-8c4.5,0,8,3.4,7.9,7.8
		C435.6,491.5,432.2,494.9,427.9,494.9z"/>
	<path fill="#151D38" d="M979.6,618.5c0,4.3-3.5,7.8-7.8,7.8c-4.4,0-8-3.7-7.9-8c0.1-4.3,3.6-7.8,7.9-7.8
		C976.1,610.5,979.6,614.1,979.6,618.5z"/>
	<path fill="#151D38" d="M648.4,285.6c-0.1,4.4-3.6,7.8-8.1,7.7c-4.3-0.1-7.7-3.6-7.6-7.9c0.1-4.4,3.6-7.8,8.1-7.7
		C645.2,277.8,648.5,281.3,648.4,285.6z"/>
	<path fill="#151D38" d="M542.3,436.9c-0.1,4.3-3.6,7.7-7.9,7.7c-4.4,0-8-3.7-7.9-8c0.1-4.4,3.7-7.8,8.2-7.7
		C539,429.1,542.4,432.6,542.3,436.9z"/>
	<path fill="#151D38" d="M501.1,352.2c-4.3,0-7.7-3.4-7.8-7.8c0-4.4,3.5-8,7.9-8c4.3,0,7.8,3.5,7.8,7.8
		C509,348.8,505.5,352.3,501.1,352.2z"/>
	<path fill="#151D38" d="M930.3,493.4c0,4.4-3.5,8-7.9,8c-4.3,0-7.7-3.5-7.8-7.8c0-4.4,3.3-7.8,7.6-7.9
		C926.8,485.6,930.2,488.9,930.3,493.4z"/>
</g>
</svg>
